<?xml version="1.0" encoding="UTF-8" standalone="no"?>
<!-- Uploaded to: SVG Repo, www.svgrepo.com, Generator: SVG Repo Mixer Tools -->

<svg
   fill="#000000"
   width="800px"
   height="800px"
   viewBox="0 0 24 24"
   role="img"
   version="1.1"
   id="svg9155"
   sodipodi:docname="nextjs.svg"
   inkscape:export-filename="nextjs.svg"
   inkscape:export-xdpi="96"
   inkscape:export-ydpi="96"
   inkscape:version="1.2.2 (732a01da63, 2022-12-09)"
   xmlns:inkscape="http://www.inkscape.org/namespaces/inkscape"
   xmlns:sodipodi="http://sodipodi.sourceforge.net/DTD/sodipodi-0.dtd"
   xmlns:xlink="http://www.w3.org/1999/xlink"
   xmlns="http://www.w3.org/2000/svg"
   xmlns:svg="http://www.w3.org/2000/svg">
  <defs
     id="defs9159">
    <linearGradient
       inkscape:collect="always"
       id="linearGradient9668">
      <stop
         style="stop-color:#3b82f6;stop-opacity:1;"
         offset="0"
         id="stop9664" />
      <stop
         style="stop-color:#2563d6;stop-opacity:1;"
         offset="1"
         id="stop9666" />
    </linearGradient>
    <linearGradient
       inkscape:collect="always"
       xlink:href="#linearGradient9668"
       id="linearGradient9670"
       x1="0.001"
       y1="12.001716"
       x2="24"
       y2="12.001716"
       gradientUnits="userSpaceOnUse" />
  </defs>
  <sodipodi:namedview
     id="namedview9157"
     pagecolor="#ffffff"
     bordercolor="#000000"
     borderopacity="0.25"
     inkscape:showpageshadow="2"
     inkscape:pageopacity="0.0"
     inkscape:pagecheckerboard="0"
     inkscape:deskcolor="#d1d1d1"
     showgrid="false"
     inkscape:zoom="1.28375"
     inkscape:cx="399.61052"
     inkscape:cy="399.61052"
     inkscape:window-width="3840"
     inkscape:window-height="2097"
     inkscape:window-x="-8"
     inkscape:window-y="2152"
     inkscape:window-maximized="1"
     inkscape:current-layer="svg9155" />
  <title
     id="title9151">Next.js icon</title>
  <path
     d="M17.813 22.502c-.089.047-.084.066.005.021a.228.228 0 0 0 .07-.047c0-.016-.002-.014-.075.026zm.178-.094c-.042.033-.042.035.009.009.028-.014.052-.03.052-.035 0-.019-.012-.014-.061.026zm.117-.071c-.042.033-.042.035.009.009.028-.014.052-.03.052-.035 0-.019-.012-.014-.061.026zm.117-.07c-.042.033-.042.035.009.009.028-.014.052-.03.052-.035 0-.019-.012-.014-.061.026zm.162-.105c-.082.052-.108.087-.035.047.052-.03.136-.094.122-.096a.466.466 0 0 0-.087.049zM11.214.006c-.052.005-.216.021-.364.033-3.408.307-6.601 2.146-8.623 4.973a11.876 11.876 0 0 0-2.118 5.243c-.096.659-.108.854-.108 1.748s.012 1.088.108 1.748c.652 4.506 3.859 8.292 8.208 9.695.779.251 1.6.422 2.533.525.364.04 1.935.04 2.299 0 1.611-.178 2.977-.577 4.323-1.264.206-.106.246-.134.218-.157a231.73 231.73 0 0 1-1.954-2.62l-1.919-2.592-2.404-3.558a332.01 332.01 0 0 0-2.421-3.556c-.009-.002-.019 1.579-.023 3.509-.007 3.38-.009 3.516-.052 3.596a.424.424 0 0 1-.206.213c-.075.038-.141.045-.495.045H7.81l-.108-.068a.442.442 0 0 1-.157-.171l-.049-.106.005-4.703.007-4.705.073-.091a.637.637 0 0 1 .174-.143c.096-.047.134-.052.54-.052.479 0 .558.019.683.155a466.83 466.83 0 0 1 2.895 4.361c1.558 2.362 3.687 5.587 4.734 7.171l1.9 2.878.096-.063a12.34 12.34 0 0 0 2.465-2.163 11.94 11.94 0 0 0 2.824-6.134c.096-.659.108-.854.108-1.748s-.012-1.088-.108-1.748c-.652-4.506-3.859-8.292-8.208-9.695a12.552 12.552 0 0 0-2.498-.523c-.225-.023-1.776-.049-1.97-.03zm4.912 7.258a.471.471 0 0 1 .237.277c.019.061.023 1.365.019 4.304l-.007 4.218-.744-1.14-.746-1.14v-3.066c0-1.982.009-3.096.023-3.15a.484.484 0 0 1 .232-.296c.096-.049.131-.054.5-.054.347 0 .408.005.486.047z"
     id="path9153"
     style="fill:url(#linearGradient9670);fill-opacity:1" />
</svg>
