<?xml version="1.0" encoding="UTF-8" standalone="no"?>
<svg
   viewBox="0 0 48 48"
   width="240px"
   height="240px"
   version="1.1"
   id="svg1920"
   sodipodi:docname="docker.svg"
   inkscape:version="1.2.2 (732a01da63, 2022-12-09)"
   xmlns:inkscape="http://www.inkscape.org/namespaces/inkscape"
   xmlns:sodipodi="http://sodipodi.sourceforge.net/DTD/sodipodi-0.dtd"
   xmlns:xlink="http://www.w3.org/1999/xlink"
   xmlns="http://www.w3.org/2000/svg"
   xmlns:svg="http://www.w3.org/2000/svg">
  <defs
     id="defs1924">
    <linearGradient
       inkscape:collect="always"
       id="linearGradient16471">
      <stop
         style="stop-color:#6366d6;stop-opacity:1;"
         offset="0"
         id="stop16467" />
      <stop
         style="stop-color:#818cf8;stop-opacity:0.74901962;"
         offset="0.9999994"
         id="stop16473" />
    </linearGradient>
    <linearGradient
       inkscape:collect="always"
       id="linearGradient15003">
      <stop
         style="stop-color:#6366d6;stop-opacity:1;"
         offset="0"
         id="stop14999" />
      <stop
         style="stop-color:#818cf8;stop-opacity:0;"
         offset="1"
         id="stop15001" />
    </linearGradient>
    <linearGradient
       inkscape:collect="always"
       id="linearGradient14987">
      <stop
         style="stop-color:#6366d6;stop-opacity:1;"
         offset="0"
         id="stop14983" />
      <stop
         style="stop-color:#818cf8;stop-opacity:0;"
         offset="1"
         id="stop14985" />
    </linearGradient>
    <linearGradient
       inkscape:collect="always"
       id="linearGradient14979">
      <stop
         style="stop-color:#6366d6;stop-opacity:1;"
         offset="0"
         id="stop14975" />
      <stop
         style="stop-color:#818cf8;stop-opacity:0;"
         offset="1"
         id="stop14977" />
    </linearGradient>
    <linearGradient
       inkscape:collect="always"
       id="linearGradient14971">
      <stop
         style="stop-color:#6366d6;stop-opacity:1;"
         offset="0"
         id="stop14967" />
      <stop
         style="stop-color:#818cf8;stop-opacity:0;"
         offset="1"
         id="stop14969" />
    </linearGradient>
    <linearGradient
       inkscape:collect="always"
       id="linearGradient14963">
      <stop
         style="stop-color:#6366d6;stop-opacity:1;"
         offset="0"
         id="stop14959" />
      <stop
         style="stop-color:#818cf8;stop-opacity:0;"
         offset="1"
         id="stop14961" />
    </linearGradient>
    <linearGradient
       inkscape:collect="always"
       id="linearGradient10599">
      <stop
         style="stop-color:#6366d6;stop-opacity:1;"
         offset="0"
         id="stop10595" />
      <stop
         style="stop-color:#6366d6;stop-opacity:0;"
         offset="1"
         id="stop10597" />
    </linearGradient>
    <linearGradient
       inkscape:collect="always"
       id="linearGradient10591">
      <stop
         style="stop-color:#6366d6;stop-opacity:1;"
         offset="0"
         id="stop10587" />
      <stop
         style="stop-color:#818cf8;stop-opacity:0;"
         offset="1"
         id="stop10589" />
    </linearGradient>
    <linearGradient
       inkscape:collect="always"
       id="linearGradient7631">
      <stop
         style="stop-color:#6366d6;stop-opacity:1;"
         offset="0"
         id="stop7627" />
      <stop
         style="stop-color:#818cf8;stop-opacity:0.49803922;"
         offset="1"
         id="stop7675" />
    </linearGradient>
    <linearGradient
       inkscape:collect="always"
       id="linearGradient6897">
      <stop
         style="stop-color:#6366d6;stop-opacity:1;"
         offset="0"
         id="stop6893" />
      <stop
         style="stop-color:#818cf8;stop-opacity:0;"
         offset="1"
         id="stop6895" />
    </linearGradient>
    <linearGradient
       inkscape:collect="always"
       xlink:href="#linearGradient6897"
       id="linearGradient6899"
       x1="16"
       y1="13.5"
       x2="21"
       y2="13.5"
       gradientUnits="userSpaceOnUse" />
    <linearGradient
       inkscape:collect="always"
       xlink:href="#linearGradient7631"
       id="linearGradient7633"
       x1="0.078606381"
       y1="27.308075"
       x2="48"
       y2="27.308075"
       gradientUnits="userSpaceOnUse" />
    <linearGradient
       inkscape:collect="always"
       xlink:href="#linearGradient10591"
       id="linearGradient10593"
       x1="22"
       y1="7.5"
       x2="27"
       y2="7.5"
       gradientUnits="userSpaceOnUse" />
    <linearGradient
       inkscape:collect="always"
       xlink:href="#linearGradient10599"
       id="linearGradient10601"
       x1="22"
       y1="13.5"
       x2="27"
       y2="13.5"
       gradientUnits="userSpaceOnUse" />
    <linearGradient
       inkscape:collect="always"
       xlink:href="#linearGradient14963"
       id="linearGradient14965"
       x1="10"
       y1="13.5"
       x2="15"
       y2="13.5"
       gradientUnits="userSpaceOnUse" />
    <linearGradient
       inkscape:collect="always"
       xlink:href="#linearGradient14971"
       id="linearGradient14973"
       x1="10"
       y1="19.5"
       x2="15"
       y2="19.5"
       gradientUnits="userSpaceOnUse" />
    <linearGradient
       inkscape:collect="always"
       xlink:href="#linearGradient14979"
       id="linearGradient14981"
       x1="4"
       y1="19.5"
       x2="9"
       y2="19.5"
       gradientUnits="userSpaceOnUse" />
    <linearGradient
       inkscape:collect="always"
       xlink:href="#linearGradient14987"
       id="linearGradient14989"
       x1="28"
       y1="19.5"
       x2="33"
       y2="19.5"
       gradientUnits="userSpaceOnUse" />
    <linearGradient
       inkscape:collect="always"
       xlink:href="#linearGradient15003"
       id="linearGradient15005"
       x1="16"
       y1="19.5"
       x2="21"
       y2="19.5"
       gradientUnits="userSpaceOnUse" />
    <linearGradient
       inkscape:collect="always"
       xlink:href="#linearGradient16471"
       id="linearGradient16465"
       x1="22"
       y1="19.5"
       x2="27"
       y2="19.5"
       gradientUnits="userSpaceOnUse"
       spreadMethod="pad" />
  </defs>
  <sodipodi:namedview
     id="namedview1922"
     pagecolor="#ffffff"
     bordercolor="#000000"
     borderopacity="0.25"
     inkscape:showpageshadow="2"
     inkscape:pageopacity="0.0"
     inkscape:pagecheckerboard="0"
     inkscape:deskcolor="#d1d1d1"
     showgrid="false"
     inkscape:zoom="1.5129139"
     inkscape:cx="124.92449"
     inkscape:cy="57.504925"
     inkscape:window-width="3840"
     inkscape:window-height="2097"
     inkscape:window-x="1821"
     inkscape:window-y="-8"
     inkscape:window-maximized="1"
     inkscape:current-layer="svg1920" />
  <path
     fill="#2395ec"
     d="M47.527,19.847c-0.13-0.102-1.345-1.007-3.908-1.007c-0.677,0.003-1.352,0.06-2.019,0.171 c-0.496-3.354-3.219-4.93-3.345-5.003l-0.688-0.392l-0.453,0.644c-0.567,0.866-1.068,1.76-1.311,2.763 c-0.459,1.915-0.18,3.713,0.806,5.25C35.417,22.928,33.386,22.986,33,23H1.582c-0.826,0.001-1.496,0.66-1.501,1.474 c-0.037,2.733,0.353,5.553,1.306,8.119c1.089,2.818,2.71,4.894,4.818,6.164C8.567,40.184,12.405,41,16.756,41 c1.965,0.006,3.927-0.169,5.859-0.524c2.686-0.487,5.271-1.413,7.647-2.74c1.958-1.119,3.72-2.542,5.219-4.215 c2.505-2.798,3.997-5.913,5.107-8.682c0.149,0,0.298,0,0.442,0c2.743,0,4.429-1.083,5.359-1.99 c0.618-0.579,1.101-1.284,1.414-2.065L48,20.216L47.527,19.847z"
     id="path1900"
     style="fill:url(#linearGradient7633);fill-opacity:1" />
  <path
     fill="#2395ec"
     d="M8,22H5c-0.552,0-1-0.448-1-1v-3c0-0.552,0.448-1,1-1h3c0.552,0,1,0.448,1,1v3 C9,21.552,8.552,22,8,22z"
     id="path1902"
     style="fill-opacity:1.0;fill:url(#linearGradient14981)" />
  <path
     fill="#2395ec"
     d="M14,22h-3c-0.552,0-1-0.448-1-1v-3c0-0.552,0.448-1,1-1h3c0.552,0,1,0.448,1,1v3 C15,21.552,14.552,22,14,22z"
     id="path1904"
     style="fill-opacity:1.0;fill:url(#linearGradient14973)" />
  <path
     fill="#2395ec"
     d="M20,22h-3c-0.552,0-1-0.448-1-1v-3c0-0.552,0.448-1,1-1h3c0.552,0,1,0.448,1,1v3 C21,21.552,20.552,22,20,22z"
     id="path1906"
     style="fill:url(#linearGradient15005);fill-opacity:1" />
  <path
     fill="#2395ec"
     d="M26,22h-3c-0.552,0-1-0.448-1-1v-3c0-0.552,0.448-1,1-1h3c0.552,0,1,0.448,1,1v3 C27,21.552,26.552,22,26,22z"
     id="path1908"
     style="fill:url(#linearGradient16465);fill-opacity:1;opacity:0.99999999" />
  <path
     fill="#2395ec"
     d="M14,16h-3c-0.552,0-1-0.448-1-1v-3c0-0.552,0.448-1,1-1h3c0.552,0,1,0.448,1,1v3 C15,15.552,14.552,16,14,16z"
     id="path1910"
     style="fill-opacity:1;fill:url(#linearGradient14965)" />
  <path
     fill="#2395ec"
     d="M20,16h-3c-0.552,0-1-0.448-1-1v-3c0-0.552,0.448-1,1-1h3c0.552,0,1,0.448,1,1v3 C21,15.552,20.552,16,20,16z"
     id="path1912"
     style="fill-opacity:1;fill:url(#linearGradient6899)" />
  <path
     fill="#2395ec"
     d="M26,16h-3c-0.552,0-1-0.448-1-1v-3c0-0.552,0.448-1,1-1h3c0.552,0,1,0.448,1,1v3 C27,15.552,26.552,16,26,16z"
     id="path1914"
     style="fill:url(#linearGradient10601);fill-opacity:1;fill-rule:nonzero" />
  <path
     fill="#2395ec"
     d="M26,10h-3c-0.552,0-1-0.448-1-1V6c0-0.552,0.448-1,1-1h3c0.552,0,1,0.448,1,1v3 C27,9.552,26.552,10,26,10z"
     id="path1916"
     style="fill:url(#linearGradient10593);fill-opacity:1" />
  <path
     fill="#2395ec"
     d="M32,22h-3c-0.552,0-1-0.448-1-1v-3c0-0.552,0.448-1,1-1h3c0.552,0,1,0.448,1,1v3 C33,21.552,32.552,22,32,22z"
     id="path1918"
     style="fill:url(#linearGradient14989);fill-opacity:1" />
</svg>
