<?xml version="1.0" encoding="UTF-8" standalone="no"?>
<svg
   width="64"
   height="64"
   version="1.1"
   id="svg22279"
   sodipodi:docname="googlecloud.svg"
   inkscape:version="1.2.2 (732a01da63, 2022-12-09)"
   xmlns:inkscape="http://www.inkscape.org/namespaces/inkscape"
   xmlns:sodipodi="http://sodipodi.sourceforge.net/DTD/sodipodi-0.dtd"
   xmlns:xlink="http://www.w3.org/1999/xlink"
   xmlns="http://www.w3.org/2000/svg"
   xmlns:svg="http://www.w3.org/2000/svg">
  <defs
     id="defs22283">
    <linearGradient
       inkscape:collect="always"
       id="linearGradient22816">
      <stop
         style="stop-color:#2563d6;stop-opacity:1;"
         offset="1"
         id="stop22812" />
      <stop
         style="stop-color:#2563d6;stop-opacity:1;"
         offset="1"
         id="stop22814" />
    </linearGradient>
    <linearGradient
       inkscape:collect="always"
       id="linearGradient22808">
      <stop
         style="stop-color:#2563d6;stop-opacity:1;"
         offset="1"
         id="stop22804" />
      <stop
         style="stop-color:#2563d6;stop-opacity:1;"
         offset="1"
         id="stop22806" />
    </linearGradient>
    <linearGradient
       inkscape:collect="always"
       id="linearGradient22800">
      <stop
         style="stop-color:#2563d6;stop-opacity:1;"
         offset="1"
         id="stop22796" />
      <stop
         style="stop-color:#2563d6;stop-opacity:1;"
         offset="1"
         id="stop22798" />
    </linearGradient>
    <linearGradient
       inkscape:collect="always"
       id="linearGradient22792">
      <stop
         style="stop-color:#2563d6;stop-opacity:1;"
         offset="1"
         id="stop22788" />
      <stop
         style="stop-color:#3b82f6;stop-opacity:0;"
         offset="1"
         id="stop22790" />
    </linearGradient>
    <linearGradient
       inkscape:collect="always"
       xlink:href="#linearGradient22792"
       id="linearGradient22794"
       x1="7.83"
       y1="15.504"
       x2="48.618"
       y2="15.504"
       gradientUnits="userSpaceOnUse" />
    <linearGradient
       inkscape:collect="always"
       xlink:href="#linearGradient22800"
       id="linearGradient22802"
       x1="30.615"
       y1="35.162"
       x2="64"
       y2="35.162"
       gradientUnits="userSpaceOnUse" />
    <linearGradient
       inkscape:collect="always"
       xlink:href="#linearGradient22808"
       id="linearGradient22810"
       x1="7.158"
       y1="51.859"
       x2="31.985"
       y2="51.859"
       gradientUnits="userSpaceOnUse" />
    <linearGradient
       inkscape:collect="always"
       xlink:href="#linearGradient22816"
       id="linearGradient22818"
       x1="0"
       y1="37.8135"
       x2="32.489"
       y2="37.8135"
       gradientUnits="userSpaceOnUse" />
  </defs>
  <sodipodi:namedview
     id="namedview22281"
     pagecolor="#ffffff"
     bordercolor="#000000"
     borderopacity="0.25"
     inkscape:showpageshadow="2"
     inkscape:pageopacity="0.0"
     inkscape:pagecheckerboard="0"
     inkscape:deskcolor="#d1d1d1"
     showgrid="false"
     inkscape:zoom="16.046875"
     inkscape:cx="31.968841"
     inkscape:cy="31.968841"
     inkscape:window-width="3840"
     inkscape:window-height="2097"
     inkscape:window-x="1821"
     inkscape:window-y="-8"
     inkscape:window-maximized="1"
     inkscape:current-layer="svg22279" />
  <path
     d="M40.728 20.488l2.05.035 5.57-5.57.27-2.36C44.2 8.657 38.367 6.26 31.993 6.26c-11.54 0-21.28 7.852-24.163 18.488.608-.424 1.908-.106 1.908-.106l11.13-1.83s.572-.947.862-.9A13.88 13.88 0 0 1 32 17.375c3.3.007 6.34 1.173 8.728 3.102z"
     fill="#ea4335"
     id="path22271"
     style="fill:url(#linearGradient22794);fill-opacity:1" />
  <path
     d="M56.17 24.77c-1.293-4.77-3.958-8.982-7.555-12.177l-7.887 7.887c3.16 2.55 5.187 6.452 5.187 10.82v1.392c3.837 0 6.954 3.124 6.954 6.954 0 3.837-3.124 6.954-6.954 6.954H32.007L30.615 48v8.346l1.392 1.385h13.908A18.11 18.11 0 0 0 64 39.647c-.007-6.155-3.1-11.6-7.83-14.876z"
     fill="#4285f4"
     id="path22273"
     style="fill-opacity:1;fill:url(#linearGradient22802)" />
  <path
     d="M18.085 57.74h13.9V46.6h-13.9a6.89 6.89 0 0 1-2.862-.622l-2.007.615-5.57 5.57-.488 1.88a18 18 0 0 0 10.926 3.689z"
     fill="#34a853"
     id="path22275"
     style="fill-opacity:1;fill:url(#linearGradient22810)" />
  <path
     d="M18.085 21.57A18.11 18.11 0 0 0 0 39.654c0 5.873 2.813 11.095 7.166 14.403l8.064-8.064a6.96 6.96 0 0 1-4.099-6.339c0-3.837 3.124-6.954 6.954-6.954 2.82 0 5.244 1.7 6.34 4.1l8.064-8.064c-3.307-4.353-8.53-7.166-14.403-7.166z"
     fill="#fbbc05"
     id="path22277"
     style="fill-opacity:1;fill:url(#linearGradient22818)" />
</svg>
