<?xml version="1.0" encoding="UTF-8" standalone="no"?>
<svg
   viewBox="0 0 48 48"
   width="240px"
   height="240px"
   version="1.1"
   id="svg25969"
   sodipodi:docname="prisma.svg"
   inkscape:version="1.2.2 (732a01da63, 2022-12-09)"
   xmlns:inkscape="http://www.inkscape.org/namespaces/inkscape"
   xmlns:sodipodi="http://sodipodi.sourceforge.net/DTD/sodipodi-0.dtd"
   xmlns="http://www.w3.org/2000/svg"
   xmlns:svg="http://www.w3.org/2000/svg">
  <defs
     id="defs25973" />
  <sodipodi:namedview
     id="namedview25971"
     pagecolor="#ffffff"
     bordercolor="#000000"
     borderopacity="0.25"
     inkscape:showpageshadow="2"
     inkscape:pageopacity="0.0"
     inkscape:pagecheckerboard="0"
     inkscape:deskcolor="#d1d1d1"
     showgrid="false"
     inkscape:zoom="4.2791667"
     inkscape:cx="119.88315"
     inkscape:cy="119.88315"
     inkscape:window-width="3840"
     inkscape:window-height="2097"
     inkscape:window-x="1821"
     inkscape:window-y="-8"
     inkscape:window-maximized="1"
     inkscape:current-layer="svg25969" />
  <linearGradient
     id="tIPmjNUBt_a5oESFbxjTla"
     x1="22.322"
     x2="24.979"
     y1="6.179"
     y2="39.339"
     gradientUnits="userSpaceOnUse">
    <stop
       offset="0"
       stop-color="#33c4a2"
       id="stop25962"
       style="stop-color:#6366d6;stop-opacity:1;" />
    <stop
       offset="0.97899997"
       stop-color="#16a394"
       id="stop25964"
       style="stop-color:#818cf8;stop-opacity:1;" />
  </linearGradient>
  <path
     fill="url(#tIPmjNUBt_a5oESFbxjTla)"
     d="M44.284,36.035L27.687,1.429c-0.855-1.783-3.337-1.93-4.397-0.26L4.886,30.177 c-0.397,0.625-0.385,1.426,0.029,2.04l9.271,13.738c0.575,0.852,1.634,1.237,2.623,0.953l25.942-7.458 C44.208,39.031,44.939,37.402,44.284,36.035z M40.618,37.279L18.8,43.388c-0.505,0.142-0.98-0.305-0.87-0.818l7.735-36.097 c0.139-0.65,1.023-0.755,1.311-0.157l14.265,29.621C41.489,36.481,41.194,37.118,40.618,37.279z"
     id="path25967" />
</svg>
